<?xml version="1.0" standalone="no"?>
<!DOCTYPE svg PUBLIC "-//W3C//DTD SVG 20010904//EN"
 "http://www.w3.org/TR/2001/REC-SVG-20010904/DTD/svg10.dtd">
<svg version="1.0" xmlns="http://www.w3.org/2000/svg"
 width="454.000000pt" height="340.000000pt" viewBox="0 0 454.000000 340.000000"
 preserveAspectRatio="xMidYMid meet">

<g transform="translate(0.000000,340.000000) scale(0.100000,-0.100000)"
fill="#000000" stroke="none">
<path d="M2234 2742 c-50 -42 -189 -160 -308 -262 -120 -102 -306 -260 -414
-352 -108 -92 -197 -166 -199 -164 -2 1 2 17 8 33 13 39 -3 105 -36 149 -76
100 -268 82 -344 -33 -55 -83 -53 -153 7 -203 l36 -29 -22 -68 c-28 -88 -41
-150 -52 -246 -10 -85 -4 -113 32 -146 44 -42 110 -53 338 -60 l215 -6 1 -35
c1 -19 5 -207 8 -417 l5 -383 -44 0 -45 0 0 -70 0 -70 925 0 925 0 0 70 0 70
-55 0 -55 0 0 435 0 435 173 0 c229 0 330 25 365 91 23 43 -4 245 -52 384
l-14 40 40 37 c40 37 40 38 36 97 -8 116 -103 201 -223 201 -73 0 -117 -20
-159 -73 -27 -34 -31 -47 -31 -98 0 -32 -3 -58 -7 -56 -4 1 -170 144 -369 317
-503 437 -566 490 -581 490 -7 0 -54 -35 -104 -78z m76 10 c0 -4 -10 -13 -22
-21 -23 -14 -23 -14 -4 8 20 22 26 25 26 13z m-60 -46 c0 -2 -8 -10 -17 -17
-16 -13 -17 -12 -4 4 13 16 21 21 21 13z m240 -218 c76 -68 139 -126 139 -129
1 -3 -11 -11 -25 -18 -24 -11 -31 -6 -129 85 -69 64 -108 93 -117 88 -7 -5
-70 -57 -141 -116 -70 -59 -134 -108 -141 -108 -8 0 -23 8 -35 18 -21 17 -19
19 142 159 89 78 164 142 166 142 2 1 65 -54 141 -121z m135 53 c3 -5 2 -12
-3 -15 -5 -3 -9 1 -9 9 0 17 3 19 12 6z m-575 -5 c0 -2 -8 -10 -17 -17 -16
-13 -17 -12 -4 4 13 16 21 21 21 13z m150 -10 c0 -2 -8 -10 -17 -17 -16 -13
-17 -12 -4 4 13 16 21 21 21 13z m270 -137 l82 -77 -81 -43 c-45 -23 -81 -48
-81 -54 0 -6 6 -20 14 -30 14 -19 17 -18 108 23 51 23 97 42 101 42 7 0 268
-235 400 -360 l47 -45 -7 -648 -6 -647 -711 2 -711 3 -6 345 c-4 190 -10 478
-13 641 l-7 297 213 179 c117 98 218 182 225 186 7 4 39 -4 72 -18 72 -30 87
-31 101 -6 14 28 15 27 -40 57 -27 15 -50 30 -50 34 0 16 244 209 255 202 7
-4 49 -41 95 -83z m250 66 c13 -14 21 -25 18 -25 -2 0 -15 11 -28 25 -13 14
-21 25 -18 25 2 0 15 -11 28 -25z m-800 -29 c0 -2 -8 -10 -17 -17 -16 -13 -17
-12 -4 4 13 16 21 21 21 13z m761 -53 c13 -16 12 -17 -3 -4 -17 13 -22 21 -14
21 2 0 10 -8 17 -17z m-821 3 c0 -2 -8 -10 -17 -17 -16 -13 -17 -12 -4 4 13
16 21 21 21 13z m-88 -79 c-12 -13 -19 -27 -15 -32 5 -4 2 -5 -5 -1 -11 6 -8
13 9 32 12 13 25 24 27 24 3 0 -4 -10 -16 -23z m171 3 c-10 -11 -19 -20 -21
-20 -1 0 2 9 8 20 6 11 15 20 20 20 6 0 2 -9 -7 -20z m1094 -301 c186 -165
339 -304 341 -307 1 -4 -50 -6 -114 -4 -89 2 -119 0 -125 -10 -5 -7 -6 -271
-3 -585 l6 -573 -33 0 -32 0 5 675 6 675 -27 21 c-14 11 -113 100 -218 197
-192 177 -193 177 -170 194 12 10 23 18 24 18 1 0 154 -135 340 -301z m-1137
267 c0 -2 -8 -10 -17 -17 -16 -13 -17 -12 -4 4 13 16 21 21 21 13z m918 -21
c-3 -3 -9 2 -12 12 -6 14 -5 15 5 6 7 -7 10 -15 7 -18z m-815 -15 c4 -3 -92
-89 -214 -191 l-221 -184 6 -195 c5 -168 21 -1000 21 -1100 0 -32 -3 -35 -31
-38 l-31 -3 -8 573 c-4 315 -9 577 -12 582 -3 5 -56 5 -119 2 -79 -5 -114 -4
-114 3 0 6 3 11 8 11 4 0 25 17 47 38 22 21 139 123 259 227 386 334 347 304
376 292 14 -6 28 -14 33 -17z m988 -7 c13 -16 12 -17 -3 -4 -17 13 -22 21 -14
21 2 0 10 -8 17 -17z m560 -17 c19 -8 46 -24 62 -36 28 -22 83 -107 75 -116
-12 -11 -57 17 -60 37 -2 12 -9 24 -17 27 -10 3 -12 -3 -9 -28 3 -21 0 -34 -9
-37 -18 -7 -51 23 -55 50 -2 11 -9 22 -17 25 -10 3 -11 -3 -6 -28 6 -27 4 -31
-11 -28 -10 2 -28 18 -40 35 -22 33 -34 34 -34 1 0 -13 -7 -18 -25 -18 -16 0
-25 6 -25 15 0 28 -18 15 -22 -15 -6 -37 0 -42 39 -31 36 10 93 -10 93 -34 0
-22 -44 -36 -91 -29 -25 4 -39 3 -39 -4 0 -17 18 -24 64 -24 56 0 82 14 90 48
6 22 11 25 29 19 12 -5 51 -7 86 -6 55 2 63 0 57 -14 -3 -9 -6 -21 -6 -26 0
-5 -18 -20 -39 -33 l-39 -25 19 -63 c30 -101 59 -242 61 -308 3 -56 1 -64 -24
-85 -46 -39 -160 -59 -338 -60 l-155 0 -3 82 -3 82 46 7 c25 3 99 2 163 -4 64
-5 120 -8 125 -5 8 5 7 275 -2 318 -5 27 -11 31 -51 35 -60 8 -86 26 -111 78
-38 77 -6 145 85 188 59 27 90 30 137 10z m-2356 -35 c62 -28 105 -83 105
-134 0 -78 -58 -137 -133 -137 -23 0 -37 -6 -41 -16 -13 -33 -18 -155 -11
-248 7 -94 8 -98 29 -92 41 11 233 19 289 12 l57 -7 0 -79 0 -78 -67 -8 c-92
-9 -273 1 -361 21 -97 22 -132 51 -132 110 0 57 25 190 56 297 25 86 25 108 0
108 -15 0 -50 37 -59 61 -4 13 2 18 29 21 20 2 37 0 40 -4 7 -11 52 -10 59 2
11 19 45 11 45 -10 0 -31 41 -52 96 -48 67 4 73 29 6 26 -78 -3 -106 36 -44
61 19 8 38 8 62 1 19 -5 36 -10 36 -10 1 0 2 16 1 35 -1 38 -11 45 -25 19 -13
-22 -50 -9 -54 19 -3 20 -6 18 -26 -15 -30 -48 -64 -53 -55 -8 8 42 -13 38
-27 -4 -10 -31 -26 -46 -51 -46 -5 0 -9 16 -9 35 0 43 -15 46 -23 5 -5 -24
-12 -30 -32 -30 -14 0 -25 3 -25 8 0 15 46 81 70 100 71 55 127 64 195 33z
m590 0 c3 -5 2 -12 -3 -15 -5 -3 -9 1 -9 9 0 17 3 19 12 6z m1319 -50 c-2 -2
-12 3 -22 12 -10 10 -23 14 -28 10 -5 -5 -6 -4 -2 1 4 5 2 16 -5 25 -6 9 4 2
24 -14 20 -17 34 -32 33 -34z m-1505 26 c-2 -1 -15 -11 -29 -22 l-25 -20 19
23 c11 12 24 22 29 22 6 0 8 -1 6 -3z m131 -31 c0 -2 -8 -10 -17 -17 -16 -13
-17 -12 -4 4 13 16 21 21 21 13z m-230 -51 c-7 -8 -17 -15 -23 -15 -6 0 -2 7
9 15 25 19 30 19 14 0z m1721 -67 c-10 -11 -11 -9 -5 6 5 12 4 17 -3 13 -5 -3
-10 1 -10 9 0 13 2 13 16 0 12 -13 13 -18 2 -28z m-136 12 c10 -11 16 -20 13
-20 -3 0 -13 9 -23 20 -10 11 -16 20 -13 20 3 0 13 -9 23 -20z m35 14 c0 -8
-19 -13 -24 -6 -3 5 1 9 9 9 8 0 15 -2 15 -3z m-1590 -79 c0 -2 -6 -8 -13 -14
-10 -8 -14 -7 -14 2 0 8 6 14 14 14 7 0 13 -1 13 -2z m1845 -55 c3 -6 -1 -7
-9 -4 -18 7 -21 14 -7 14 6 0 13 -4 16 -10z m96 -18 c7 -20 6 -21 -10 -13 -10
6 -24 17 -31 26 -12 15 -11 17 9 13 14 -1 27 -13 32 -26z m-2281 -17 l-23 -25
23 -77 c35 -120 20 -110 169 -105 l131 5 0 -36 0 -35 -117 2 c-65 0 -143 -1
-173 -4 l-55 -4 -8 88 c-5 49 -5 114 0 144 7 48 12 57 33 63 42 12 44 10 20
-16z m250 9 c0 -8 -19 -13 -24 -6 -3 5 1 9 9 9 8 0 15 -2 15 -3z m-191 -17
c-2 -1 -13 -9 -24 -17 -19 -14 -19 -14 -6 3 7 9 18 17 24 17 6 0 8 -1 6 -3z
m161 -11 c0 -2 -12 -11 -27 -20 l-28 -17 24 20 c23 21 31 25 31 17z m2065
-194 c-6 -43 -7 -43 -38 -36 -18 4 -87 7 -154 8 -108 0 -123 2 -123 17 0 25
20 29 161 29 l129 0 12 48 13 47 3 -35 c2 -19 1 -54 -3 -78z m-237 -1189 l-3
-38 -892 -2 -893 -2 0 39 0 40 896 0 895 0 -3 -37z"/>
<path d="M2485 2131 c-33 -14 -56 -47 -62 -89 -4 -33 -1 -44 23 -71 16 -17 43
-34 60 -37 45 -9 93 36 101 92 4 35 1 45 -23 72 -32 34 -68 46 -99 33z m105
-97 c0 -47 -29 -78 -75 -78 -27 0 -43 6 -56 23 -20 25 -25 77 -9 101 8 12 10
10 10 -10 0 -30 9 -44 35 -57 43 -22 88 25 71 74 -5 15 -4 15 9 -1 8 -11 15
-34 15 -52z"/>
<path d="M2072 2105 c-60 -50 -48 -141 23 -171 41 -17 73 -7 104 32 47 59 14
149 -60 160 -28 5 -41 1 -67 -21z m128 -50 c11 -30 -5 -81 -30 -95 -35 -19
-77 -12 -99 16 -22 28 -28 78 -11 89 6 3 10 -3 10 -14 0 -26 26 -51 52 -51 29
0 58 28 58 57 0 30 8 29 20 -2z"/>
<path d="M2286 2012 c-10 -42 -21 -83 -23 -89 -4 -10 7 -11 43 -7 27 4 50 7
51 8 4 3 -42 166 -47 166 -3 0 -14 -35 -24 -78z"/>
<path d="M2464 1767 c-107 -154 -240 -143 -340 28 -6 11 -15 15 -22 11 -9 -5
-8 -16 3 -43 24 -56 62 -101 105 -123 47 -24 147 -27 189 -6 58 30 137 140
124 173 -9 23 -21 14 -59 -40z"/>
</g>
</svg>
